<?xml version="1.0" standalone="no"?>
<!DOCTYPE svg PUBLIC "-//W3C//DTD SVG 20010904//EN"
 "http://www.w3.org/TR/2001/REC-SVG-20010904/DTD/svg10.dtd">
<svg version="1.0" xmlns="http://www.w3.org/2000/svg"
 width="740.000000pt" height="740.000000pt" viewBox="0 0 740.000000 740.000000"
 preserveAspectRatio="xMidYMid meet">
<metadata>
Created by potrace 1.13, written by Peter Selinger 2001-2015
</metadata>
<g transform="translate(0.000000,740.000000) scale(0.100000,-0.100000)"
fill="#000000" stroke="none">
<path d="M0 3700 l0 -3700 3700 0 3700 0 0 3700 0 3700 -3700 0 -3700 0 0
-3700z m4140 3520 c1505 -200 2715 -1346 2999 -2840 43 -230 55 -373 55 -660
0 -287 -12 -430 -55 -660 -240 -1261 -1145 -2293 -2364 -2696 -872 -287 -1832
-216 -2658 197 -918 460 -1594 1306 -1842 2302 -75 305 -100 512 -100 857 0
268 9 384 46 600 186 1100 897 2058 1900 2560 398 200 820 318 1286 360 160
14 556 4 733 -20z"/>
<path d="M3460 6964 c-708 -64 -1289 -292 -1820 -712 -118 -94 -347 -317 -448
-437 -393 -467 -652 -1033 -741 -1618 -54 -352 -54 -672 0 -1024 78 -514 298
-1039 613 -1457 120 -159 161 -203 179 -191 146 103 250 157 267 139 5 -5 10
-67 12 -139 4 -122 6 -134 36 -197 17 -37 36 -69 41 -72 5 -3 12 -21 15 -41
14 -71 90 -125 159 -111 17 3 65 26 107 51 43 25 109 56 149 70 39 13 88 33
109 44 20 11 80 41 132 66 52 24 118 57 145 72 70 38 191 83 247 93 27 5 52
11 57 15 6 3 13 -11 17 -32 6 -36 90 -258 114 -303 44 -82 149 -184 237 -228
22 -11 45 -27 52 -35 6 -8 64 -39 129 -68 l117 -54 215 1 c288 2 418 16 630
72 232 60 369 123 524 239 35 27 90 66 122 88 33 22 77 58 99 80 22 22 60 56
85 76 70 56 158 146 174 178 13 24 140 121 159 121 3 0 8 -78 10 -173 4 -185
26 -343 52 -384 18 -27 71 -53 107 -53 123 1 552 412 799 765 624 890 761
2063 362 3080 -174 443 -422 816 -769 1156 -509 498 -1127 799 -1849 900 -135
19 -533 33 -645 23z m1608 -684 c57 -54 26 -160 -48 -160 -31 0 -67 31 -76 65
-14 55 26 115 76 115 14 0 36 -9 48 -20z m-2535 -92 c90 -48 33 -169 -68 -144
-34 9 -65 45 -65 75 1 61 75 100 133 69z m1754 -314 c270 -53 486 -168 600
-318 52 -69 66 -98 83 -176 22 -101 -23 -221 -124 -328 -62 -66 -85 -66 -101
-2 -35 135 -156 260 -355 368 -223 120 -546 180 -833 154 -320 -29 -524 -101
-665 -236 -109 -104 -152 -206 -152 -362 0 -242 143 -420 468 -584 96 -48 261
-116 410 -170 l62 -23 50 47 c108 101 252 141 505 140 151 0 182 -3 278 -28
186 -47 315 -105 481 -216 527 -353 770 -978 585 -1508 -99 -281 -275 -487
-530 -617 -59 -30 -156 -90 -215 -132 -217 -155 -305 -206 -476 -277 -111 -46
-214 -73 -331 -87 -167 -20 -366 24 -465 102 -41 32 -80 96 -87 143 -9 59 24
136 77 177 57 45 135 80 192 86 l51 5 56 -64 c89 -101 209 -148 377 -148 233
0 410 79 476 213 21 41 26 65 26 127 0 103 -35 175 -135 275 -147 147 -378
277 -740 415 -453 174 -651 290 -733 429 -24 40 -27 57 -27 131 0 74 4 93 30
143 32 64 139 173 179 183 31 7 302 -83 496 -166 347 -147 766 -378 967 -531
147 -112 279 -267 337 -397 12 -27 25 -42 38 -42 15 0 18 8 18 50 0 289 -224
600 -610 845 -208 132 -494 261 -950 430 -579 214 -771 313 -945 489 -131 131
-185 254 -185 415 0 115 21 196 80 316 113 232 340 440 634 581 344 165 745
219 1103 148z m-2402 -209 c73 -15 190 -68 238 -107 l28 -23 -88 0 c-115 -1
-182 -27 -262 -100 -186 -173 -186 -457 0 -630 90 -83 231 -124 334 -97 l40
11 -44 -39 c-142 -124 -387 -165 -581 -97 -231 82 -381 286 -382 521 0 172 43
279 161 397 150 150 346 208 556 164z m3994 -979 c30 -52 33 -54 84 -61 28 -4
56 -10 60 -12 5 -3 -10 -25 -34 -49 l-42 -43 6 -61 c7 -60 6 -61 -16 -54 -12
3 -38 14 -57 24 -34 17 -35 17 -87 -8 -29 -14 -54 -24 -57 -21 -2 2 -1 29 3
59 7 54 6 56 -31 97 -21 24 -38 47 -38 52 0 5 25 12 55 16 55 6 56 8 86 61 17
30 32 54 34 54 2 0 17 -24 34 -54z m-4929 -463 c67 -39 64 -140 -5 -171 -51
-23 -107 -7 -131 39 -26 51 -12 103 34 132 35 21 67 21 102 0z m455 -1078 c29
-55 61 -102 71 -106 11 -4 51 -12 89 -19 39 -6 87 -16 109 -22 l38 -9 -86 -89
-87 -89 6 -63 c4 -35 11 -88 16 -117 5 -30 6 -58 2 -62 -5 -4 -55 15 -112 42
-57 27 -107 49 -111 49 -4 0 -54 -22 -111 -49 -57 -27 -107 -46 -112 -42 -4 4
-3 32 2 62 5 29 12 82 16 117 l6 63 -81 84 c-45 46 -79 88 -76 93 3 5 49 17
103 27 54 9 107 20 118 25 11 4 31 30 45 56 61 120 83 155 92 152 5 -2 33 -48
63 -103z"/>
</g>
</svg>
